REM DIRINDEX 1\2,1\3\7,1\3\8,1\4\9,1\4\10,1\4\11,1\5\12,1\5\13,1\5\14,1\6\15,1\6\16,1\6\17
REM DIRNAME "folder01","folder02","folder03","folder04","folder05","folder06","folder07","folder08","folder09","folder10","folder11","folder12","folder13","folder14","folder15","folder16","folder17"
TITLE ""
FILE "2Q_t_0818-0834.mp3" MP3
  TRACK 01 AUDIO
    TITLE "7:cjc174_3411"
    INDEX 01 00:00:00
  TRACK 02 AUDIO
    TITLE "0:"
    INDEX 01 00:00:65
  TRACK 03 AUDIO
    TITLE "8:cjc174_3412"
    INDEX 01 00:01:49
  TRACK 04 AUDIO
    TITLE "0:"
    INDEX 01 00:02:56
  TRACK 05 AUDIO
    TITLE "7:cjc174_3413"
    INDEX 01 00:03:24
  TRACK 06 AUDIO
    TITLE "0:"
    INDEX 01 00:04:63
  TRACK 07 AUDIO
    TITLE "8:cjc174_3414"
    INDEX 01 00:05:35
  TRACK 08 AUDIO
    TITLE "0:"
    INDEX 01 00:07:01
  TRACK 09 AUDIO
    TITLE "7:cjc174_3415"
    INDEX 01 00:07:46
  TRACK 10 AUDIO
    TITLE "0:"
    INDEX 01 00:08:49
  TRACK 11 AUDIO
    TITLE "8:cjc174_3416"
    INDEX 01 00:09:19
  TRACK 12 AUDIO
    TITLE "0:"
    INDEX 01 00:12:19
  TRACK 13 AUDIO
    TITLE "7:cjc174_3417"
    INDEX 01 00:12:62
  TRACK 14 AUDIO
    TITLE "0:"
    INDEX 01 00:13:64
  TRACK 15 AUDIO
    TITLE "8:cjc174_3418"
    INDEX 01 00:14:38
  TRACK 16 AUDIO
    TITLE "0:"
    INDEX 01 00:18:22
  TRACK 17 AUDIO
    TITLE "7:cjc174_3419"
    INDEX 01 00:18:67
  TRACK 18 AUDIO
    TITLE "0:"
    INDEX 01 00:20:09
  TRACK 19 AUDIO
    TITLE "8:cjc174_3420"
    INDEX 01 00:20:60
  TRACK 20 AUDIO
    TITLE "0:"
    INDEX 01 00:22:26
  TRACK 21 AUDIO
    TITLE "7:cjc174_3421"
    INDEX 01 00:22:71
  TRACK 22 AUDIO
    TITLE "0:"
    INDEX 01 00:23:68
  TRACK 23 AUDIO
    TITLE "8:cjc174_3422"
    INDEX 01 00:24:40
  TRACK 24 AUDIO
    TITLE "0:"
    INDEX 01 00:28:28
  TRACK 25 AUDIO
    TITLE "7:cjc174_3423"
    INDEX 01 00:28:71
  TRACK 26 AUDIO
    TITLE "0:"
    INDEX 01 00:30:07
  TRACK 27 AUDIO
    TITLE "8:cjc174_3424"
    INDEX 01 00:30:54
  TRACK 28 AUDIO
    TITLE "0:"
    INDEX 01 00:33:27
  TRACK 29 AUDIO
    TITLE "7:cjc174_3425"
    INDEX 01 00:33:70
  TRACK 30 AUDIO
    TITLE "0:"
    INDEX 01 00:35:05
  TRACK 31 AUDIO
    TITLE "8:cjc174_3426"
    INDEX 01 00:35:52
  TRACK 32 AUDIO
    TITLE "0:"
    INDEX 01 00:38:72
  TRACK 33 AUDIO
    TITLE "7:cjc174_3427"
    INDEX 01 00:39:42
  TRACK 34 AUDIO
    TITLE "0:"
    INDEX 01 00:40:55
  TRACK 35 AUDIO
    TITLE "8:cjc174_3428"
    INDEX 01 00:41:27
  TRACK 36 AUDIO
    TITLE "0:"
    INDEX 01 00:43:12
  TRACK 37 AUDIO
    TITLE "7:cjc174_3429"
    INDEX 01 00:43:55
  TRACK 38 AUDIO
    TITLE "0:"
    INDEX 01 00:45:03
  TRACK 39 AUDIO
    TITLE "8:cjc174_3430"
    INDEX 01 00:45:50
  TRACK 40 AUDIO
    TITLE "0:"
    INDEX 01 00:49:26
  TRACK 41 AUDIO
    TITLE "7:cjc174_3431"
    INDEX 01 00:49:71
  TRACK 42 AUDIO
    TITLE "0:"
    INDEX 01 00:51:02
  TRACK 43 AUDIO
    TITLE "8:cjc174_3432"
    INDEX 01 00:51:59
  TRACK 44 AUDIO
    TITLE "0:"
    INDEX 01 00:54:41
  TRACK 45 AUDIO
    TITLE "7:cjc174_3433"
    INDEX 01 00:55:09
  TRACK 46 AUDIO
    TITLE "0:"
    INDEX 01 00:56:25
  TRACK 47 AUDIO
    TITLE "8:cjc174_3434"
    INDEX 01 00:56:73
  TRACK 48 AUDIO
    TITLE "0:"
    INDEX 01 00:59:48
  TRACK 49 AUDIO
    TITLE "7:cjc174_3435"
    INDEX 01 01:00:18
  TRACK 50 AUDIO
    TITLE "0:"
    INDEX 01 01:01:22
  TRACK 51 AUDIO
    TITLE "8:cjc174_3436"
    INDEX 01 01:01:71
  TRACK 52 AUDIO
    TITLE "0:"
    INDEX 01 01:07:13
  TRACK 53 AUDIO
    TITLE "2:cjc174_3437"
    INDEX 01 01:07:56
  TRACK 54 AUDIO
    TITLE "0:"
    INDEX 01 01:08:63
  TRACK 55 AUDIO
    TITLE "7:cjc174_3438"
    INDEX 01 01:09:31
  TRACK 56 AUDIO
    TITLE "0:"
    INDEX 01 01:10:56
  TRACK 57 AUDIO
    TITLE "8:cjc174_3439"
    INDEX 01 01:11:28
  TRACK 58 AUDIO
    TITLE "0:"
    INDEX 01 01:14:28
  TRACK 59 AUDIO
    TITLE "7:cjc174_3440"
    INDEX 01 01:14:75
  TRACK 60 AUDIO
    TITLE "0:"
    INDEX 01 01:16:27
  TRACK 61 AUDIO
    TITLE "8:cjc174_3441"
    INDEX 01 01:16:72
  TRACK 62 AUDIO
    TITLE "0:"
    INDEX 01 01:19:06
  TRACK 63 AUDIO
    TITLE "7:cjc174_3442"
    INDEX 01 01:19:53
  TRACK 64 AUDIO
    TITLE "0:"
    INDEX 01 01:21:05
  TRACK 65 AUDIO
    TITLE "8:cjc174_3443"
    INDEX 01 01:21:50
  TRACK 66 AUDIO
    TITLE "0:"
    INDEX 01 01:22:63
  TRACK 67 AUDIO
    TITLE "7:cjc174_3444"
    INDEX 01 01:23:33
  TRACK 68 AUDIO
    TITLE "0:"
    INDEX 01 01:24:38
  TRACK 69 AUDIO
    TITLE "8:cjc174_3445"
    INDEX 01 01:25:18
  TRACK 70 AUDIO
    TITLE "0:"
    INDEX 01 01:26:35
